# xmcd CD database file
#
# Track frame offsets:
#	150
#	13372
#	36192
#	50073
#	68498
#	85961
#	98256
#	112942
#	133324
#	152388
#	165139
#
# Disc length: 2476 seconds
#
# Revision: 1
# Processed by: cddbd v1.5.1PL0 Copyright (c) Steve Scherf et al.
# Submitted via: CDex 1.51
#
DISCID=7d09aa0b
DTITLE=Ines Saavedra - Las Casualidades No Existen
DYEAR=2005
DGENRE=Blues
TTITLE0=Imagenes Cotidianas II
TTITLE1=Dêja Vu
TTITLE2=La Chacarera del Sol
TTITLE3=El Baúl
TTITLE4=Caleidoscopio
TTITLE5=Letras
TTITLE6=Montevideo
TTITLE7=Siempre Corriendo
TTITLE8=Vagamundo
TTITLE9=Lecciones
TTITLE10=Las Casualidades No Existen
EXTD=YEAR: 2005
EXTT0=
EXTT1=
EXTT2=
EXTT3=
EXTT4=
EXTT5=
EXTT6=
EXTT7=
EXTT8=
EXTT9=
EXTT10=
PLAYORDER=
